# xmcd
#
# Track frame offsets: 
#        150
#        21245
#        34437
#        64427
#        88135
#        101087
#        121725
#        160957
#        189142
#        210205
#        221105
#
# Disc length: 3523 seconds
#
# Revision: 0
# Processed by: cddbd v1.5.1PL0 Copyright (c) Steve Scherf et al.
# Submitted via: ExactAudioCopy v0.95a5
#
DISCID=9a0dc10b
DTITLE=Linda Shell - Under The Influence
DYEAR=1997
DGENRE=Kansas City Blues
TTITLE0=Over At Fannie Mae's
TTITLE1=Travelin' South
TTITLE2=It Don't Hurt No More
TTITLE3=Have A Good Time
TTITLE4=Hands Off
TTITLE5=Misty Blue
TTITLE6=R&B Medley
TTITLE7=I'd Rather Go Blind
TTITLE8=Me and The Band
TTITLE9=Respect
TTITLE10=Mr. Blues
EXTD=
EXTT0=
EXTT1=
EXTT2=
EXTT3=
EXTT4=
EXTT5=
EXTT6=
EXTT7=
EXTT8=
EXTT9=
EXTT10=
PLAYORDER=
